<?xml version="1.0" encoding="utf-8"?><svg fill="none" viewBox="0 0 600 600" xmlns="http://www.w3.org/2000/svg"><defs /><g opacity="0.88" id="12"><animate repeatCount="indefinite" attributeName="opacity" dur="1s" begin="0s" calcMode="spline" values="0.88; 0; 1; 0.88" keyTimes="0; 0.9; 0.917; 1" keySplines="0 0 1 1; 0 0 1 1; 0 0 1 1" fill="freeze" /><g transform="translate(300,300) rotate(-210) scale(1,1) translate(0,0)"><g id="Shape 1" transform="matrix(1,0,0,1,-11,82)"><path stroke-linejoin="miter" stroke-linecap="round" stroke-width="40" stroke-opacity="1" stroke="#000000" d="M13,22L13,124" /></g></g></g><g opacity="0.8" id="11"><animate repeatCount="indefinite" attributeName="opacity" dur="1s" begin="0s" calcMode="spline" values="0.8; 0; 1; 0.8" keyTimes="0; 0.817; 0.833; 1" keySplines="0 0 1 1; 0 0 1 1; 0 0 1 1" fill="freeze" /><g transform="translate(300,300) rotate(-240) scale(1,1) translate(0,0)"><g id="Shape 1" transform="matrix(1,0,0,1,-11,82)"><path stroke-linejoin="miter" stroke-linecap="round" stroke-width="40" stroke-opacity="1" stroke="#000000" d="M13,22L13,124" /></g></g></g><g opacity="0.72" id="10"><animate repeatCount="indefinite" attributeName="opacity" dur="1s" begin="0s" calcMode="spline" values="0.72; 0; 1; 0.72" keyTimes="0; 0.733; 0.75; 1" keySplines="0 0 1 1; 0 0 1 1; 0 0 1 1" fill="freeze" /><g transform="translate(300,300) rotate(-270) scale(1,1) translate(0,0)"><g id="Shape 1" transform="matrix(1,0,0,1,-11,82)"><path stroke-linejoin="miter" stroke-linecap="round" stroke-width="40" stroke-opacity="1" stroke="#000000" d="M13,22L13,124" /></g></g></g><g opacity="0.64" id="9"><animate repeatCount="indefinite" attributeName="opacity" dur="1s" begin="0s" calcMode="spline" values="0.64; 0; 1; 0.64" keyTimes="0; 0.65; 0.667; 1" keySplines="0 0 1 1; 0 0 1 1; 0 0 1 1" fill="freeze" /><g transform="translate(300,300) rotate(-300) scale(1,1) translate(0,0)"><g id="Shape 1" transform="matrix(1,0,0,1,-11,82)"><path stroke-linejoin="miter" stroke-linecap="round" stroke-width="40" stroke-opacity="1" stroke="#000000" d="M13,22L13,124" /></g></g></g><g opacity="0.56" id="8"><animate repeatCount="indefinite" attributeName="opacity" dur="1s" begin="0s" calcMode="spline" values="0.56; 0; 1; 0.56" keyTimes="0; 0.567; 0.583; 1" keySplines="0 0 1 1; 0 0 1 1; 0 0 1 1" fill="freeze" /><g transform="translate(300,300) rotate(-330) scale(1,1) translate(0,0)"><g id="Shape 1" transform="matrix(1,0,0,1,-11,82)"><path stroke-linejoin="miter" stroke-linecap="round" stroke-width="40" stroke-opacity="1" stroke="#000000" d="M13,22L13,124" /></g></g></g><g opacity="0.48" id="7"><animate repeatCount="indefinite" attributeName="opacity" dur="1s" begin="0s" calcMode="spline" values="0.48; 0; 1; 0.48" keyTimes="0; 0.483; 0.5; 1" keySplines="0 0 1 1; 0 0 1 1; 0 0 1 1" fill="freeze" /><g transform="translate(300,300) scale(1,1) translate(0,0)"><g id="Shape 1" transform="matrix(1,0,0,1,-11,82)"><path stroke-linejoin="miter" stroke-linecap="round" stroke-width="40" stroke-opacity="1" stroke="#000000" d="M13,22L13,124" /></g></g></g><g opacity="0.4" id="6"><animate repeatCount="indefinite" attributeName="opacity" dur="1s" begin="0s" calcMode="spline" values="0.4; 0; 1; 0.4" keyTimes="0; 0.4; 0.417; 1" keySplines="0 0 1 1; 0 0 1 1; 0 0 1 1" fill="freeze" /><g transform="translate(300,300) rotate(-30) scale(1,1) translate(0,0)"><g id="Shape 1" transform="matrix(1,0,0,1,-11,82)"><path stroke-linejoin="miter" stroke-linecap="round" stroke-width="40" stroke-opacity="1" stroke="#000000" d="M13,22L13,124" /></g></g></g><g opacity="0.32" id="5"><animate repeatCount="indefinite" attributeName="opacity" dur="1s" begin="0s" calcMode="spline" values="0.32; 0; 1; 0.32" keyTimes="0; 0.317; 0.333; 1" keySplines="0 0 1 1; 0 0 1 1; 0 0 1 1" fill="freeze" /><g transform="translate(300,300) rotate(-60) scale(1,1) translate(0,0)"><g id="Shape 1" transform="matrix(1,0,0,1,-11,82)"><path stroke-linejoin="miter" stroke-linecap="round" stroke-width="40" stroke-opacity="1" stroke="#000000" d="M13,22L13,124" /></g></g></g><g opacity="0.24" id="4"><animate repeatCount="indefinite" attributeName="opacity" dur="1s" begin="0s" calcMode="spline" values="0.24; 0; 1; 0.24" keyTimes="0; 0.233; 0.25; 1" keySplines="0 0 1 1; 0 0 1 1; 0 0 1 1" fill="freeze" /><g transform="translate(300,300) rotate(-90) scale(1,1) translate(0,0)"><g id="Shape 1" transform="matrix(1,0,0,1,-11,82)"><path stroke-linejoin="miter" stroke-linecap="round" stroke-width="40" stroke-opacity="1" stroke="#000000" d="M13,22L13,124" /></g></g></g><g opacity="0.16" id="3"><animate repeatCount="indefinite" attributeName="opacity" dur="1s" begin="0s" calcMode="spline" values="0.16; 0; 1; 0.16" keyTimes="0; 0.15; 0.167; 1" keySplines="0 0 1 1; 0 0 1 1; 0 0 1 1" fill="freeze" /><g transform="translate(300,300) rotate(-120) scale(1,1) translate(0,0)"><g id="Shape 1" transform="matrix(1,0,0,1,-11,82)"><path stroke-linejoin="miter" stroke-linecap="round" stroke-width="40" stroke-opacity="1" stroke="#000000" d="M13,22L13,124" /></g></g></g><g opacity="0.08" id="2"><animate repeatCount="indefinite" attributeName="opacity" dur="1s" begin="0s" calcMode="spline" values="0.08; 0; 1; 0.08" keyTimes="0; 0.067; 0.083; 1" keySplines="0 0 1 1; 0 0 1 1; 0 0 1 1" fill="freeze" /><g transform="translate(300,300) rotate(-150) scale(1,1) translate(0,0)"><g id="Shape 1" transform="matrix(1,0,0,1,-11,82)"><path stroke-linejoin="miter" stroke-linecap="round" stroke-width="40" stroke-opacity="1" stroke="#000000" d="M13,22L13,124" /></g></g></g><g opacity="1" id="1"><animate repeatCount="indefinite" attributeName="opacity" dur="1s" begin="0s" calcMode="spline" values="1; 0" keyTimes="0; 1" keySplines="0 0 1 1" fill="freeze" /><g transform="translate(300,300) rotate(-180) scale(1,1) translate(0,0)"><g id="Shape 1" transform="matrix(1,0,0,1,-11,82)"><path stroke-linejoin="miter" stroke-linecap="round" stroke-width="40" stroke-opacity="1" stroke="#000000" d="M13,22L13,124" /></g></g></g></svg>